<svg width="21" height="20" viewBox="0 0 21 20" fill="none" xmlns="http://www.w3.org/2000/svg">
<path class='load-spin'  d="M19.3 10.1331C19.3 14.6901 15.4066 18.4665 10.5 18.4665C5.59331 18.4665 1.69995 14.6901 1.69995 10.1331C1.69995 5.57618 5.59331 1.7998 10.5 1.7998C15.4066 1.7998 19.3 5.57618 19.3 10.1331Z" stroke="#3176FA" stroke-width="2"/>
<g style="mix-blend-mode:multiply" opacity="0.3">
<path class='load-spin'  d="M18.6 10.1331C18.6 14.6901 14.7066 18.4665 9.8 18.4665C4.89336 18.4665 1 14.6901 1 10.1331C1 5.57618 4.89336 1.7998 9.8 1.7998C14.7066 1.7998 18.6 5.57618 18.6 10.1331Z" stroke="#3176FA" stroke-width="2"/>
</g>
<g style="mix-blend-mode:hard-light">
<path class='load-spin'  d="M20 9.86654C20 14.3793 15.9348 18.1999 10.71 18.1999C5.48526 18.1999 1.42004 14.3793 1.42004 9.86654C1.42004 5.35374 5.48526 1.5332 10.71 1.5332C15.9348 1.5332 20 5.35374 20 9.86654Z" stroke="#0158FF" stroke-width="2"/>
</g>
</svg>
